<?xml version="1.0" encoding="utf-8"?>
<!-- Generator: Adobe Illustrator 19.2.1, SVG Export Plug-In . SVG Version: 6.00 Build 0)  -->
<svg version="1.1" id="layer" xmlns="http://www.w3.org/2000/svg" xmlns:xlink="http://www.w3.org/1999/xlink" x="0px" y="0px"
	 viewBox="0 0 652 652" style="enable-background:new 0 0 652 652;" xml:space="preserve">
<style type="text/css">
	.st0{fill:#ED0007;}
</style>
<path class="st0" d="M278.1,319.3c7.4-2.9,12.3-10.1,12.2-18c0-16.2-11.5-24.2-27.3-24.2h-41.4v88.2h45c13.9,0,27.4-9.7,27.4-24.5
	C294.1,323,278.1,319.5,278.1,319.3z M243.2,295.3h16.1c4.3-0.3,8,3,8.3,7.3l0,0c0,0.3,0,0.6,0,1c-0.1,4.5-3.8,8.1-8.3,8.1h-16.2
	L243.2,295.3z M259.4,346.7h-16.1v-17.3H259c7.9,0,11.6,3.5,11.6,8.6C270.6,344.4,265.9,346.7,259.4,346.7z M341.7,274.8
	c-25.5,0-40.5,20.4-40.5,46.1c0,25.8,15,46.1,40.5,46.1s40.5-20.2,40.5-46.1S367.4,274.8,341.7,274.8z M341.7,346
	c-12.5,0-18.7-11.2-18.7-25.1s6.2-24.9,18.7-24.9s18.8,11.2,18.8,24.9C360.6,335,354.2,346,341.7,346z M429.2,311.7l-3-0.7
	c-7.5-1.5-13.4-3.5-13.4-8.9c0-5.8,5.7-8.2,10.7-8.2c6.9,0.1,13.4,3.1,18,8.2l13.7-13.6c-6.2-7.1-16.4-13.9-32.1-13.9
	c-18.6,0-32.7,10.4-32.7,27.7c0,15.8,11.4,23.6,25.2,26.5l3,0.7c11.5,2.4,15.8,4.2,15.8,9.7c0,5.3-4.7,8.7-11.9,8.7
	c-8.6,0-16.4-3.7-22.3-11.4l-14,13.9c7.8,9.3,17.6,16.5,36.6,16.5c16.5,0,34.1-9.4,34.1-28.7C457,318.2,441.8,314.3,429.2,311.7z
	 M506.1,346c-9.7,0-19.8-8-19.8-25.6c0-15.7,9.4-24.4,19.3-24.4c7.8,0,12.3,3.6,15.9,9.8l17.7-11.8c-8.9-13.4-19.4-19.1-33.9-19.1
	c-26.6,0-41,20.6-41,45.6c0,26.2,15.9,46.7,40.7,46.7c17.5,0,25.8-6.1,34.8-19.1l-17.9-12C518.3,341.9,514.4,346,506.1,346z
	 M598.4,277v32.4h-26.7V277h-23.1v88.1h23.1v-34.8h26.7v34.8h23.1V277H598.4z"/>
<path d="M88.3,254.6c-36.9,0-66.8,29.9-66.8,66.8s29.9,66.8,66.8,66.8s66.8-29.9,66.8-66.8S125.2,254.6,88.3,254.6L88.3,254.6z
	 M88.3,381.9c-33.4,0-60.6-27.1-60.6-60.6s27.1-60.6,60.6-60.6s60.6,27.1,60.6,60.6C148.8,354.8,121.7,381.9,88.3,381.9z
	 M115.9,279.7h-4.6v22.9H65.4v-22.9h-4.7c-23,15.2-29.4,46.2-14.2,69.2c3.7,5.6,8.6,10.5,14.2,14.2h4.7v-22.8h45.9v22.9h4.6
	c23-15.2,29.4-46.2,14.2-69.2C126.4,288.3,121.5,283.4,115.9,279.7L115.9,279.7z M59.1,354.1C41,338,39.4,310.4,55.5,292.3l0,0
	c1.1-1.3,2.4-2.5,3.6-3.6V354.1z M111.3,333.9H65.4v-25.1h45.9V333.9z M117.5,354v-13.9l0,0v-37.6l0,0v-13.9
	c18,16.2,19.5,43.9,3.3,61.9l0,0C119.8,351.8,118.7,352.9,117.5,354L117.5,354z"/>
</svg>
